<svg width="16" height="16" viewBox="0 0 16 16" fill="none" xmlns="http://www.w3.org/2000/svg">
<rect width="16" height="16" fill="white"/>
<rect width="16" height="16" fill="#1b1b1b"/>
<path d="M9.8 5.02V10.19C9.8 10.4833 9.75 10.75 9.65 10.99C9.55 11.23 9.40667 11.4333 9.22 11.6C9.04 11.7667 8.82333 11.8967 8.57 11.99C8.31667 12.0767 8.04 12.12 7.74 12.12C7.20667 12.12 6.76667 11.9833 6.42 11.71C6.07333 11.43 5.84667 11.04 5.74 10.54L6.54 10.37C6.57333 10.51 6.61667 10.6433 6.67 10.77C6.73 10.89 6.80667 10.9967 6.9 11.09C7 11.1767 7.12 11.2467 7.26 11.3C7.4 11.3533 7.56667 11.38 7.76 11.38C8.14 11.38 8.43333 11.2733 8.64 11.06C8.85333 10.84 8.96 10.5 8.96 10.04V5.75H6.44V5.02H9.8Z" fill="#F2F2F2"/>
</svg>
